<mxfile host="app.diagrams.net" modified="2023-05-27T15:59:25.221Z" agent="Mozilla/5.0 (Windows NT 10.0; Win64; x64) AppleWebKit/537.36 (KHTML, like Gecko) Chrome/113.0.0.0 Safari/537.36" etag="rP4ffHZEcQUuXJ4svmex" version="21.3.4" type="device" pages="2">
  <diagram name="Parte1" id="igcwNfniIkLuGri0lJyN">
    <mxGraphModel dx="1627" dy="909" grid="1" gridSize="10" guides="1" tooltips="1" connect="1" arrows="1" fold="1" page="1" pageScale="1" pageWidth="827" pageHeight="1169" math="0" shadow="0">
      <root>
        <mxCell id="0" />
        <mxCell id="1" parent="0" />
        <mxCell id="y6elzWr8lBc3vzOKyWKa-1" value="Usuario" style="shape=umlActor;html=1;verticalLabelPosition=bottom;verticalAlign=top;align=center;" vertex="1" parent="1">
          <mxGeometry x="90" y="340" width="30" height="60" as="geometry" />
        </mxCell>
        <mxCell id="y6elzWr8lBc3vzOKyWKa-2" value="Solicitar viaje" style="ellipse;whiteSpace=wrap;html=1;" vertex="1" parent="1">
          <mxGeometry x="274" y="335" width="140" height="70" as="geometry" />
        </mxCell>
        <mxCell id="y6elzWr8lBc3vzOKyWKa-3" value="&amp;lt;&amp;lt;include&amp;gt;&amp;gt;" style="edgeStyle=none;html=1;endArrow=open;verticalAlign=bottom;dashed=1;labelBackgroundColor=none;rounded=0;exitX=1;exitY=0;exitDx=0;exitDy=0;entryX=0;entryY=0.5;entryDx=0;entryDy=0;" edge="1" parent="1" source="y6elzWr8lBc3vzOKyWKa-2" target="y6elzWr8lBc3vzOKyWKa-9">
          <mxGeometry width="160" relative="1" as="geometry">
            <mxPoint x="360" y="260" as="sourcePoint" />
            <mxPoint x="520" y="260" as="targetPoint" />
          </mxGeometry>
        </mxCell>
        <mxCell id="y6elzWr8lBc3vzOKyWKa-4" value="&amp;lt;&amp;lt;extend&amp;gt;&amp;gt;" style="edgeStyle=none;html=1;startArrow=open;endArrow=none;startSize=12;verticalAlign=bottom;dashed=1;labelBackgroundColor=none;rounded=0;entryX=0;entryY=0;entryDx=0;entryDy=0;exitX=1;exitY=1;exitDx=0;exitDy=0;" edge="1" parent="1" source="y6elzWr8lBc3vzOKyWKa-2" target="y6elzWr8lBc3vzOKyWKa-8">
          <mxGeometry width="160" relative="1" as="geometry">
            <mxPoint x="440" y="400" as="sourcePoint" />
            <mxPoint x="600" y="400" as="targetPoint" />
          </mxGeometry>
        </mxCell>
        <mxCell id="y6elzWr8lBc3vzOKyWKa-5" value="Conductor&lt;br&gt;" style="shape=umlActor;html=1;verticalLabelPosition=bottom;verticalAlign=top;align=center;" vertex="1" parent="1">
          <mxGeometry x="90" y="450" width="30" height="60" as="geometry" />
        </mxCell>
        <mxCell id="y6elzWr8lBc3vzOKyWKa-6" value="" style="edgeStyle=none;html=1;endArrow=block;endFill=0;endSize=12;verticalAlign=bottom;rounded=0;entryX=0;entryY=0.5;entryDx=0;entryDy=0;" edge="1" parent="1" source="y6elzWr8lBc3vzOKyWKa-1" target="y6elzWr8lBc3vzOKyWKa-2">
          <mxGeometry width="160" relative="1" as="geometry">
            <mxPoint x="100" y="344.5" as="sourcePoint" />
            <mxPoint x="260" y="344.5" as="targetPoint" />
          </mxGeometry>
        </mxCell>
        <mxCell id="y6elzWr8lBc3vzOKyWKa-11" value="Pide" style="edgeLabel;html=1;align=center;verticalAlign=middle;resizable=0;points=[];" vertex="1" connectable="0" parent="y6elzWr8lBc3vzOKyWKa-6">
          <mxGeometry x="0.2121" y="-1" relative="1" as="geometry">
            <mxPoint as="offset" />
          </mxGeometry>
        </mxCell>
        <mxCell id="y6elzWr8lBc3vzOKyWKa-7" value="" style="rounded=0;whiteSpace=wrap;html=1;fillColor=none;" vertex="1" parent="1">
          <mxGeometry x="180" y="180" width="930" height="460" as="geometry" />
        </mxCell>
        <mxCell id="y6elzWr8lBc3vzOKyWKa-8" value="Seleccionar tipo uber" style="ellipse;whiteSpace=wrap;html=1;" vertex="1" parent="1">
          <mxGeometry x="470" y="430" width="140" height="70" as="geometry" />
        </mxCell>
        <mxCell id="y6elzWr8lBc3vzOKyWKa-9" value="Calcular tarifa estimada" style="ellipse;whiteSpace=wrap;html=1;" vertex="1" parent="1">
          <mxGeometry x="470" y="270" width="140" height="70" as="geometry" />
        </mxCell>
        <mxCell id="y6elzWr8lBc3vzOKyWKa-10" value="Compartir ubicacion en tiempo real con contactos" style="ellipse;whiteSpace=wrap;html=1;" vertex="1" parent="1">
          <mxGeometry x="660" y="515" width="140" height="70" as="geometry" />
        </mxCell>
        <mxCell id="y6elzWr8lBc3vzOKyWKa-12" value="" style="edgeStyle=none;html=1;endArrow=block;endFill=0;endSize=12;verticalAlign=bottom;rounded=0;entryX=0;entryY=1;entryDx=0;entryDy=0;exitX=0.544;exitY=0.639;exitDx=0;exitDy=0;exitPerimeter=0;" edge="1" parent="1" source="y6elzWr8lBc3vzOKyWKa-5" target="y6elzWr8lBc3vzOKyWKa-2">
          <mxGeometry width="160" relative="1" as="geometry">
            <mxPoint x="120" y="490" as="sourcePoint" />
            <mxPoint x="274" y="490" as="targetPoint" />
          </mxGeometry>
        </mxCell>
        <mxCell id="y6elzWr8lBc3vzOKyWKa-13" value="Acepta" style="edgeLabel;html=1;align=center;verticalAlign=middle;resizable=0;points=[];" vertex="1" connectable="0" parent="y6elzWr8lBc3vzOKyWKa-12">
          <mxGeometry x="0.2121" y="-1" relative="1" as="geometry">
            <mxPoint as="offset" />
          </mxGeometry>
        </mxCell>
        <mxCell id="y6elzWr8lBc3vzOKyWKa-16" value="Tomar uber" style="ellipse;whiteSpace=wrap;html=1;" vertex="1" parent="1">
          <mxGeometry x="660" y="335" width="140" height="70" as="geometry" />
        </mxCell>
        <mxCell id="y6elzWr8lBc3vzOKyWKa-18" value="&amp;lt;&amp;lt;include&amp;gt;&amp;gt;" style="edgeStyle=none;html=1;endArrow=open;verticalAlign=bottom;dashed=1;labelBackgroundColor=none;rounded=0;exitX=1;exitY=0.5;exitDx=0;exitDy=0;entryX=0;entryY=0.5;entryDx=0;entryDy=0;" edge="1" parent="1" source="y6elzWr8lBc3vzOKyWKa-2" target="y6elzWr8lBc3vzOKyWKa-16">
          <mxGeometry x="-0.0565" y="-3" width="160" relative="1" as="geometry">
            <mxPoint x="403" y="355" as="sourcePoint" />
            <mxPoint x="480" y="315" as="targetPoint" />
            <mxPoint as="offset" />
          </mxGeometry>
        </mxCell>
        <mxCell id="y6elzWr8lBc3vzOKyWKa-19" value="&amp;lt;&amp;lt;extend&amp;gt;&amp;gt;" style="edgeStyle=none;html=1;startArrow=open;endArrow=none;startSize=12;verticalAlign=bottom;dashed=1;labelBackgroundColor=none;rounded=0;entryX=0.5;entryY=0;entryDx=0;entryDy=0;exitX=0.5;exitY=1;exitDx=0;exitDy=0;" edge="1" parent="1" source="y6elzWr8lBc3vzOKyWKa-16" target="y6elzWr8lBc3vzOKyWKa-10">
          <mxGeometry width="160" relative="1" as="geometry">
            <mxPoint x="681" y="450" as="sourcePoint" />
            <mxPoint x="779" y="495" as="targetPoint" />
          </mxGeometry>
        </mxCell>
        <mxCell id="y6elzWr8lBc3vzOKyWKa-20" value="Finalizar viaje" style="ellipse;whiteSpace=wrap;html=1;" vertex="1" parent="1">
          <mxGeometry x="930" y="335" width="140" height="70" as="geometry" />
        </mxCell>
        <mxCell id="y6elzWr8lBc3vzOKyWKa-21" value="&amp;lt;&amp;lt;include&amp;gt;&amp;gt;" style="edgeStyle=none;html=1;endArrow=open;verticalAlign=bottom;dashed=1;labelBackgroundColor=none;rounded=0;exitX=1;exitY=0.5;exitDx=0;exitDy=0;entryX=0;entryY=0.5;entryDx=0;entryDy=0;" edge="1" parent="1" source="y6elzWr8lBc3vzOKyWKa-16" target="y6elzWr8lBc3vzOKyWKa-20">
          <mxGeometry x="-0.0565" y="-3" width="160" relative="1" as="geometry">
            <mxPoint x="424" y="380" as="sourcePoint" />
            <mxPoint x="670" y="380" as="targetPoint" />
            <mxPoint as="offset" />
          </mxGeometry>
        </mxCell>
      </root>
    </mxGraphModel>
  </diagram>
  <diagram id="ZJV0ty769_Qy8efGYL1K" name="Parte2">
    <mxGraphModel dx="961" dy="736" grid="1" gridSize="10" guides="1" tooltips="1" connect="1" arrows="1" fold="1" page="1" pageScale="1" pageWidth="827" pageHeight="1169" math="0" shadow="0">
      <root>
        <mxCell id="0" />
        <mxCell id="1" parent="0" />
        <mxCell id="gqHpwpnxpVQLuu3j56us-1" value="Usuario" style="shape=umlActor;html=1;verticalLabelPosition=bottom;verticalAlign=top;align=center;" vertex="1" parent="1">
          <mxGeometry x="90" y="340" width="30" height="60" as="geometry" />
        </mxCell>
        <mxCell id="gqHpwpnxpVQLuu3j56us-5" value="Repartidor" style="shape=umlActor;html=1;verticalLabelPosition=bottom;verticalAlign=top;align=center;" vertex="1" parent="1">
          <mxGeometry x="90" y="570" width="30" height="60" as="geometry" />
        </mxCell>
        <mxCell id="Ixy9o50BHszrOOTSkzFJ-20" value="" style="rounded=0;whiteSpace=wrap;html=1;fillColor=none;" vertex="1" parent="1">
          <mxGeometry x="160" y="230" width="710" height="490" as="geometry" />
        </mxCell>
        <mxCell id="gqHpwpnxpVQLuu3j56us-10" value="Realizar pedido" style="ellipse;whiteSpace=wrap;html=1;" vertex="1" parent="1">
          <mxGeometry x="260" y="430" width="140" height="70" as="geometry" />
        </mxCell>
        <mxCell id="Ixy9o50BHszrOOTSkzFJ-1" value="" style="edgeStyle=none;html=1;endArrow=block;endFill=0;endSize=12;verticalAlign=bottom;rounded=0;entryX=0;entryY=0;entryDx=0;entryDy=0;" edge="1" parent="1" source="gqHpwpnxpVQLuu3j56us-1" target="gqHpwpnxpVQLuu3j56us-10">
          <mxGeometry width="160" relative="1" as="geometry">
            <mxPoint x="180" y="363" as="sourcePoint" />
            <mxPoint x="368" y="270" as="targetPoint" />
          </mxGeometry>
        </mxCell>
        <mxCell id="Ixy9o50BHszrOOTSkzFJ-2" value="Realiza" style="edgeLabel;html=1;align=center;verticalAlign=middle;resizable=0;points=[];" vertex="1" connectable="0" parent="Ixy9o50BHszrOOTSkzFJ-1">
          <mxGeometry x="0.2121" y="-1" relative="1" as="geometry">
            <mxPoint as="offset" />
          </mxGeometry>
        </mxCell>
        <mxCell id="Ixy9o50BHszrOOTSkzFJ-3" value="&amp;lt;&amp;lt;include&amp;gt;&amp;gt;" style="edgeStyle=none;html=1;endArrow=open;verticalAlign=bottom;dashed=1;labelBackgroundColor=none;rounded=0;exitX=1;exitY=0.5;exitDx=0;exitDy=0;entryX=0;entryY=0.5;entryDx=0;entryDy=0;" edge="1" parent="1" source="Ixy9o50BHszrOOTSkzFJ-16" target="Ixy9o50BHszrOOTSkzFJ-17">
          <mxGeometry width="160" relative="1" as="geometry">
            <mxPoint x="520" y="370" as="sourcePoint" />
            <mxPoint x="596" y="330" as="targetPoint" />
          </mxGeometry>
        </mxCell>
        <mxCell id="Ixy9o50BHszrOOTSkzFJ-4" value="&amp;lt;&amp;lt;extend&amp;gt;&amp;gt;" style="edgeStyle=none;html=1;startArrow=open;endArrow=none;startSize=12;verticalAlign=bottom;dashed=1;labelBackgroundColor=none;rounded=0;entryX=0;entryY=0.5;entryDx=0;entryDy=0;exitX=1;exitY=0.5;exitDx=0;exitDy=0;" edge="1" parent="1" source="gqHpwpnxpVQLuu3j56us-10" target="Ixy9o50BHszrOOTSkzFJ-16">
          <mxGeometry width="160" relative="1" as="geometry">
            <mxPoint x="414" y="350" as="sourcePoint" />
            <mxPoint x="660" y="350" as="targetPoint" />
          </mxGeometry>
        </mxCell>
        <mxCell id="Ixy9o50BHszrOOTSkzFJ-5" value="Actualizar info personal" style="ellipse;whiteSpace=wrap;html=1;" vertex="1" parent="1">
          <mxGeometry x="260" y="600" width="140" height="70" as="geometry" />
        </mxCell>
        <mxCell id="Ixy9o50BHszrOOTSkzFJ-6" value="Ver historial compras" style="ellipse;whiteSpace=wrap;html=1;" vertex="1" parent="1">
          <mxGeometry x="260" y="260" width="140" height="70" as="geometry" />
        </mxCell>
        <mxCell id="Ixy9o50BHszrOOTSkzFJ-7" value="Empleado Super" style="shape=umlActor;html=1;verticalLabelPosition=bottom;verticalAlign=top;align=center;" vertex="1" parent="1">
          <mxGeometry x="90" y="460" width="30" height="60" as="geometry" />
        </mxCell>
        <mxCell id="Ixy9o50BHszrOOTSkzFJ-8" value="" style="edgeStyle=none;html=1;endArrow=block;endFill=0;endSize=12;verticalAlign=bottom;rounded=0;entryX=0;entryY=0.5;entryDx=0;entryDy=0;exitX=0.5;exitY=0.5;exitDx=0;exitDy=0;exitPerimeter=0;" edge="1" parent="1" source="Ixy9o50BHszrOOTSkzFJ-7" target="gqHpwpnxpVQLuu3j56us-10">
          <mxGeometry width="160" relative="1" as="geometry">
            <mxPoint x="100" y="460" as="sourcePoint" />
            <mxPoint x="260" y="478" as="targetPoint" />
          </mxGeometry>
        </mxCell>
        <mxCell id="Ixy9o50BHszrOOTSkzFJ-9" value="Arna" style="edgeLabel;html=1;align=center;verticalAlign=middle;resizable=0;points=[];" vertex="1" connectable="0" parent="Ixy9o50BHszrOOTSkzFJ-8">
          <mxGeometry x="0.2121" y="-1" relative="1" as="geometry">
            <mxPoint as="offset" />
          </mxGeometry>
        </mxCell>
        <mxCell id="Ixy9o50BHszrOOTSkzFJ-10" value="" style="edgeStyle=none;html=1;endArrow=block;endFill=0;endSize=12;verticalAlign=bottom;rounded=0;entryX=0;entryY=1;entryDx=0;entryDy=0;" edge="1" parent="1" source="gqHpwpnxpVQLuu3j56us-5" target="gqHpwpnxpVQLuu3j56us-10">
          <mxGeometry width="160" relative="1" as="geometry">
            <mxPoint x="150" y="600" as="sourcePoint" />
            <mxPoint x="305" y="525" as="targetPoint" />
          </mxGeometry>
        </mxCell>
        <mxCell id="Ixy9o50BHszrOOTSkzFJ-11" value="Entrega" style="edgeLabel;html=1;align=center;verticalAlign=middle;resizable=0;points=[];" vertex="1" connectable="0" parent="Ixy9o50BHszrOOTSkzFJ-10">
          <mxGeometry x="0.2121" y="-1" relative="1" as="geometry">
            <mxPoint as="offset" />
          </mxGeometry>
        </mxCell>
        <mxCell id="Ixy9o50BHszrOOTSkzFJ-16" value="Recibir pedido" style="ellipse;whiteSpace=wrap;html=1;" vertex="1" parent="1">
          <mxGeometry x="500" y="430" width="140" height="70" as="geometry" />
        </mxCell>
        <mxCell id="Ixy9o50BHszrOOTSkzFJ-17" value="Calificar repartidor" style="ellipse;whiteSpace=wrap;html=1;" vertex="1" parent="1">
          <mxGeometry x="710" y="430" width="140" height="70" as="geometry" />
        </mxCell>
        <mxCell id="Ixy9o50BHszrOOTSkzFJ-18" value="&amp;lt;&amp;lt;extend&amp;gt;&amp;gt;" style="edgeStyle=none;html=1;startArrow=open;endArrow=none;startSize=12;verticalAlign=bottom;dashed=1;labelBackgroundColor=none;rounded=0;entryX=0.5;entryY=1;entryDx=0;entryDy=0;exitX=0.5;exitY=0;exitDx=0;exitDy=0;" edge="1" parent="1" source="gqHpwpnxpVQLuu3j56us-10" target="Ixy9o50BHszrOOTSkzFJ-6">
          <mxGeometry width="160" relative="1" as="geometry">
            <mxPoint x="527" y="130" as="sourcePoint" />
            <mxPoint x="613" y="245" as="targetPoint" />
            <Array as="points" />
          </mxGeometry>
        </mxCell>
        <mxCell id="Ixy9o50BHszrOOTSkzFJ-19" value="&amp;lt;&amp;lt;extend&amp;gt;&amp;gt;" style="edgeStyle=none;html=1;startArrow=open;endArrow=none;startSize=12;verticalAlign=bottom;dashed=1;labelBackgroundColor=none;rounded=0;entryX=0.5;entryY=0;entryDx=0;entryDy=0;exitX=0.5;exitY=1;exitDx=0;exitDy=0;" edge="1" parent="1" source="gqHpwpnxpVQLuu3j56us-10" target="Ixy9o50BHszrOOTSkzFJ-5">
          <mxGeometry width="160" relative="1" as="geometry">
            <mxPoint x="380" y="500" as="sourcePoint" />
            <mxPoint x="466" y="615" as="targetPoint" />
          </mxGeometry>
        </mxCell>
      </root>
    </mxGraphModel>
  </diagram>
</mxfile>
